<?xml version="1.0" encoding="iso-8859-1"?>
<!-- Generator: Adobe Illustrator 19.0.0, SVG Export Plug-In . SVG Version: 6.00 Build 0)  -->
<svg version="1.1" id="Capa_1" xmlns="http://www.w3.org/2000/svg" xmlns:xlink="http://www.w3.org/1999/xlink" x="0px" y="0px"
	 viewBox="0 0 512 512" style="enable-background:new 0 0 512 512;" xml:space="preserve">
<g>
	<g>
		<path d="M395.67,426.579h-54.873v-62.155c0-4.283-3.472-7.755-7.755-7.755h-93.732c-4.283,0-7.755,3.472-7.755,7.755
			s3.472,7.755,7.755,7.755h85.977v54.4h-54.872H215.54v-62.155c0-4.283-3.472-7.755-7.755-7.755c-4.283,0-7.755,3.472-7.755,7.755
			v62.155h-54.873H90.283v-9.738c0-4.283-3.472-7.755-7.755-7.755c-4.283,0-7.755,3.472-7.755,7.755v9.738H56.029
			c-4.283,0-7.755,3.472-7.755,7.755c0,4.283,3.472,7.755,7.755,7.755h26.498H137.4v54.4H27.654v-54.4h2.338
			c4.283,0,7.755-3.472,7.755-7.755c0-4.283-3.472-7.755-7.755-7.755H19.899c-4.283,0-7.755,3.472-7.755,7.755v69.91
			c0,4.283,3.472,7.755,7.755,7.755h125.256h125.257h125.256c4.283,0,7.755-3.472,7.755-7.755v-69.91
			C403.425,430.051,399.953,426.579,395.67,426.579z M262.657,496.489H152.91v-54.4h54.873h54.873V496.489z M278.168,496.489v-54.4
			h54.872h54.873v54.4H278.168z"/>
	</g>
</g>
<g>
	<g>
		<path d="M134.141,356.669H82.528c-4.283,0-7.755,3.472-7.755,7.755v16.34c0,4.283,3.472,7.755,7.755,7.755
			c4.283,0,7.755-3.472,7.755-7.755v-8.585h43.858c4.283,0,7.755-3.472,7.755-7.755
			C141.896,360.141,138.424,356.669,134.141,356.669z"/>
	</g>
</g>
<g>
	<g>
		<path d="M491.606,27.298L472.558,8.25c-11-11-28.9-11.001-39.9,0l-23.81,23.81l-21.361,21.361L174.614,266.294
			c-0.018,0.018-0.032,0.038-0.05,0.056c-0.197,0.202-0.387,0.412-0.563,0.636c-0.006,0.008-0.014,0.017-0.021,0.025
			c-0.184,0.237-0.355,0.485-0.513,0.746c-0.028,0.045-0.05,0.093-0.077,0.14c-0.116,0.2-0.223,0.404-0.323,0.617
			c-0.043,0.094-0.082,0.189-0.121,0.285c-0.042,0.102-0.092,0.201-0.13,0.306l-27.86,75.842c-1.042,2.836-0.341,6.02,1.796,8.158
			c1.481,1.481,3.463,2.272,5.486,2.272c0.896,0,1.801-0.155,2.672-0.476l75.842-27.86c0.047-0.018,0.089-0.039,0.135-0.058
			c0.126-0.049,0.25-0.103,0.373-0.159c0.117-0.053,0.233-0.104,0.345-0.162c0.107-0.054,0.21-0.114,0.313-0.173
			c0.124-0.07,0.247-0.142,0.366-0.218c0.086-0.055,0.169-0.115,0.252-0.174c0.128-0.09,0.255-0.181,0.377-0.278
			c0.072-0.058,0.143-0.12,0.213-0.181c0.124-0.107,0.245-0.214,0.362-0.327c0.024-0.023,0.05-0.042,0.073-0.066l212.871-212.872
			l21.361-21.361l23.81-23.81C502.607,56.198,502.606,38.299,491.606,27.298z M392.97,69.873L405.995,82.9
			c-0.023,0.022-0.048,0.04-0.07,0.063L211.56,277.328l-18.008-8.038L392.97,69.873z M165.297,334.56l7.176-19.536l12.36,12.36
			L165.297,334.56z M200.874,321.49l-22.509-22.509l6.149-16.74l22.883,10.214l10.215,22.884L200.874,321.49z M230.567,306.304
			l-8.039-18.009L416.893,93.93c0.023-0.023,0.041-0.048,0.063-0.07l13.027,13.027L230.567,306.304z M440.951,95.919l-18.506-18.507
			l-18.506-18.507l10.393-10.394l37.013,37.013L440.951,95.919z M480.639,56.232l-18.326,18.326l-37.013-37.013l18.326-18.326
			c4.953-4.953,13.012-4.953,17.965,0l19.048,19.048C485.592,43.219,485.592,51.279,480.639,56.232z"/>
	</g>
</g>
<g>
</g>
<g>
</g>
<g>
</g>
<g>
</g>
<g>
</g>
<g>
</g>
<g>
</g>
<g>
</g>
<g>
</g>
<g>
</g>
<g>
</g>
<g>
</g>
<g>
</g>
<g>
</g>
<g>
</g>
</svg>
